<?xml version="1.0" encoding="utf-8"?>
<!-- Generator: Adobe Illustrator 16.0.0, SVG Export Plug-In . SVG Version: 6.00 Build 0)  -->
<!DOCTYPE svg PUBLIC "-//W3C//DTD SVG 1.1//EN" "http://www.w3.org/Graphics/SVG/1.1/DTD/svg11.dtd">
<svg version="1.1" id="Layer_1_xA0_Image_1_" xmlns="http://www.w3.org/2000/svg" xmlns:xlink="http://www.w3.org/1999/xlink"
	 x="0px" y="0px" width="267.6px" height="94.561px" viewBox="0 0 267.6 94.561" enable-background="new 0 0 267.6 94.561"
	 xml:space="preserve">
<g>
	<g>
		<path fill="#FCFDFC" d="M113.04,87.349c-35,0-70-0.004-104.999,0.023c-0.9,0-1.104-0.203-1.104-1.103
			c0.028-25.881,0.028-51.761,0-77.641C6.936,7.808,7.098,7.648,7.92,7.648c83.839,0.023,167.679,0.023,251.519,0
			c0.821,0,0.984,0.16,0.983,0.981c-0.028,24.16-0.023,48.32-0.023,72.48c-0.408-0.006-0.652-0.208-0.73-0.61
			c0.597-0.957-0.061-1.784-0.359-2.585c-2.347-6.271-6.611-11.13-11.587-15.428c-4.316-3.728-9.491-5.973-14.631-8.244
			c-2.614-1.155-5.372-1.932-8.143-2.625c-2.779-0.695-5.574-1.335-8.377-1.937c-2.804-0.601-5.624-1.132-8.439-1.67
			c-0.486-0.093-1.198-0.019-1.195-0.609c0.002-0.524,0.805-0.533,1.206-0.844c0.051-0.038,0.159,0.005,0.235-0.013
			c3.91-0.83,7.85-1.494,11.78-2.209c3.025-0.55,5.954-1.613,8.958-2.309c2.135-0.494,4.027-1.536,5.98-2.411
			c4.43-1.985,8.37-4.775,12.054-7.923c4.754-4.063,8.932-8.596,11.499-14.398c0.473-1.066,1.091-2.104,1.084-3.335
			c0.202-0.088,0.314-0.271,0.182-0.435c-0.208-0.255-0.272,0.056-0.385,0.156c-1.602,1.284-3.34,2.369-5.174,3.269
			c-4.061,1.99-8.313,3.498-12.634,4.818c-6.927,2.115-13.963,3.809-21.056,5.254c-4.946,1.008-9.908,1.94-14.898,2.725
			c-3.667,0.576-7.328,1.196-11.007,1.692c-3.915,0.526-7.823,1.106-11.743,1.597c-3.145,0.392-6.302,0.684-9.455,1.016
			c-4.411,0.465-8.818,0.962-13.234,1.379c-3.912,0.37-7.83,0.689-11.75,0.958c-5.274,0.361-10.553,0.695-15.832,0.957
			c-3.341,0.167-6.682,0.319-10.021,0.473c-5.377,0.245-10.76,0.355-16.142,0.5c-5.949,0.158-11.903-0.119-17.854,0.224
			c-0.995,0.057-2.021,0.242-3.229-0.052c0.567-0.42,1.064-0.658,1.382-1.044c1.859-2.27,3.856-4.413,5.803-6.606
			c3.859-4.352,7.656-8.759,11.494-13.129c2.694-3.066,5.412-6.112,8.119-9.168c0.104-0.115,0.416-0.183,0.161-0.396
			c-0.171-0.142-0.353-0.022-0.436,0.188c-0.229,0.038-0.474,0.041-0.688,0.121c-3.456,1.279-6.908,2.564-10.359,3.855
			c-8.591,3.214-17.177,6.441-25.771,9.644c-7.056,2.626-14.124,5.211-21.182,7.832c-8.524,3.166-17.047,6.345-25.564,9.529
			c-6.933,2.591-13.858,5.199-20.853,7.824c0.219,0.128,0.375,0.248,0.551,0.314c6.49,2.448,12.988,4.877,19.476,7.337
			c8.979,3.405,17.948,6.839,26.926,10.247c10.189,3.867,20.386,7.717,30.578,11.578c8.612,3.262,17.222,6.531,25.839,9.783
			c0.384,0.146,0.835,0.652,1.23-0.021C112.688,86.53,113,86.823,113.04,87.349z"/>
		<path fill="#FFFFFF" d="M259.668,80.5c0.078,0.402,0.322,0.604,0.73,0.61c0,1.88-0.023,3.761,0.017,5.64
			c0.011,0.517-0.1,0.707-0.617,0.605c-0.154-0.031-0.319-0.006-0.479-0.006c-48.76,0-97.52,0-146.279,0
			c-0.04-0.525-0.353-0.818-0.831-0.968c-2.146-2.327-4.287-4.653-6.435-6.979c-2.908-3.151-5.811-6.31-8.731-9.448
			c-2.574-2.765-5.229-5.458-7.731-8.286c-1.067-1.208-2.256-2.298-3.35-3.486c1.307-0.444,2.572-0.288,3.828-0.309
			c6.669-0.109,13.334,0.188,20.002,0.252c1.75,0.019,3.504,0.104,5.251,0.147c6.689,0.17,13.375,0.438,20.059,0.771
			c4.168,0.207,8.333,0.456,12.499,0.7c5.63,0.332,11.251,0.747,16.87,1.228c3.475,0.298,6.948,0.604,10.42,0.939
			c5.242,0.507,10.481,1.031,15.703,1.712c5.058,0.659,10.132,1.207,15.172,1.982c6.35,0.976,12.688,2.033,18.993,3.292
			c8.755,1.747,17.449,3.723,25.845,6.799C253.824,76.878,257.051,78.135,259.668,80.5z"/>
		<path fill="#19603B" d="M259.668,80.5c-2.617-2.364-5.844-3.622-9.065-4.803c-8.396-3.076-17.089-5.052-25.845-6.799
			c-6.305-1.259-12.644-2.316-18.993-3.292c-5.04-0.775-10.114-1.323-15.172-1.982c-5.222-0.681-10.461-1.206-15.703-1.712
			c-3.472-0.335-6.945-0.643-10.42-0.939c-5.618-0.479-11.24-0.896-16.87-1.228c-4.166-0.245-8.331-0.493-12.499-0.7
			c-6.684-0.333-13.369-0.6-20.059-0.771c-1.747-0.044-3.501-0.13-5.251-0.147c-6.668-0.064-13.333-0.362-20.002-0.252
			c-1.256,0.021-2.521-0.136-3.828,0.309c1.094,1.188,2.281,2.278,3.35,3.486c2.502,2.829,5.157,5.521,7.731,8.286
			c2.922,3.139,5.823,6.296,8.731,9.448c2.146,2.325,4.289,4.651,6.435,6.979c-0.396,0.673-0.848,0.165-1.23,0.021
			c-8.617-3.251-17.227-6.521-25.839-9.783c-10.192-3.86-20.389-7.71-30.578-11.578c-8.978-3.408-17.946-6.842-26.926-10.247
			c-6.486-2.459-12.984-4.889-19.476-7.337c-0.176-0.066-0.332-0.188-0.551-0.313c6.993-2.625,13.92-5.234,20.853-7.825
			c8.519-3.186,17.04-6.363,25.564-9.529c7.058-2.621,14.126-5.206,21.182-7.832c8.596-3.201,17.182-6.43,25.771-9.644
			c3.451-1.291,6.903-2.576,10.359-3.855c0.214-0.08,0.458-0.083,0.688-0.121c0.092,0.069,0.184,0.139,0.273,0.208
			c-2.707,3.057-5.425,6.102-8.119,9.168c-3.838,4.37-7.635,8.777-11.494,13.129c-1.945,2.193-3.942,4.338-5.803,6.606
			c-0.316,0.386-0.813,0.624-1.382,1.044c1.21,0.294,2.234,0.107,3.229,0.052c5.949-0.343,11.903-0.064,17.854-0.224
			c5.382-0.145,10.765-0.255,16.142-0.5c3.34-0.152,6.681-0.306,10.021-0.473c5.279-0.262,10.558-0.596,15.832-0.957
			c3.92-0.269,7.838-0.588,11.75-0.958c4.415-0.417,8.823-0.913,13.234-1.379c3.152-0.332,6.311-0.624,9.455-1.016
			c3.92-0.489,7.828-1.069,11.743-1.597c3.68-0.496,7.34-1.116,11.007-1.692c4.991-0.783,9.953-1.717,14.898-2.725
			c7.092-1.445,14.129-3.139,21.056-5.254c4.319-1.32,8.573-2.828,12.634-4.818c1.834-0.898,3.572-1.983,5.174-3.268
			c0.067,0.092,0.136,0.185,0.203,0.276c0.007,1.23-0.611,2.269-1.084,3.335c-2.567,5.804-6.745,10.337-11.499,14.398
			c-3.684,3.146-7.624,5.938-12.054,7.923c-1.953,0.875-3.846,1.917-5.98,2.411c-3.004,0.694-5.933,1.759-8.958,2.309
			c-3.931,0.715-7.871,1.379-11.78,2.209c-0.077,0.018-0.185-0.025-0.235,0.014c-0.401,0.31-1.204,0.317-1.206,0.843
			c-0.003,0.591,0.708,0.517,1.195,0.609c2.816,0.538,5.636,1.069,8.439,1.67c2.803,0.602,5.598,1.241,8.377,1.937
			c2.771,0.693,5.528,1.469,8.143,2.625c5.14,2.271,10.314,4.517,14.631,8.244c4.977,4.298,9.24,9.156,11.587,15.428
			C259.609,78.716,260.265,79.543,259.668,80.5z"/>
		<path fill="#19603B" d="M259.531,13.685c0.112-0.103,0.177-0.412,0.385-0.157c0.133,0.162,0.021,0.347-0.182,0.435
			C259.667,13.869,259.599,13.777,259.531,13.685z"/>
		<path fill="#19603B" d="M112.027,8.336c0.083-0.21,0.265-0.328,0.436-0.188c0.255,0.213-0.059,0.279-0.161,0.396
			C112.21,8.474,112.118,8.405,112.027,8.336z"/>
	</g>
</g>
</svg>
