<?xml version="1.0" encoding="utf-8"?>
<!-- Generator: Adobe Illustrator 16.0.0, SVG Export Plug-In . SVG Version: 6.00 Build 0)  -->
<!DOCTYPE svg PUBLIC "-//W3C//DTD SVG 1.1//EN" "http://www.w3.org/Graphics/SVG/1.1/DTD/svg11.dtd">
<svg version="1.1" id="Layer_1_xA0_Image_1_" xmlns="http://www.w3.org/2000/svg" xmlns:xlink="http://www.w3.org/1999/xlink"
	 x="0px" y="0px" width="267.6px" height="94.56px" viewBox="0 0 267.6 94.56" enable-background="new 0 0 267.6 94.56"
	 xml:space="preserve">
<g>
	<g>
		<path fill-rule="evenodd" clip-rule="evenodd" fill="#FCFDFC" d="M154.319,7.68c35,0,70,0.004,104.999-0.023
			c0.9,0,1.104,0.203,1.104,1.103c-0.028,25.88-0.028,51.76,0,77.64c0.001,0.821-0.161,0.982-0.983,0.982
			c-83.839-0.024-167.679-0.024-251.519,0c-0.821,0-0.984-0.161-0.983-0.982C6.965,62.24,6.96,38.08,6.96,13.92
			c0.408,0.006,0.653,0.208,0.731,0.61c-0.597,0.957,0.06,1.784,0.359,2.585c2.347,6.271,6.611,11.13,11.587,15.428
			c4.316,3.727,9.491,5.972,14.631,8.244c2.614,1.155,5.372,1.932,8.142,2.625c2.78,0.695,5.575,1.335,8.377,1.936
			c2.804,0.601,5.624,1.132,8.44,1.67c0.486,0.093,1.198,0.019,1.195,0.61c-0.002,0.524-0.805,0.533-1.206,0.843
			c-0.051,0.039-0.159-0.004-0.235,0.013c-3.91,0.83-7.85,1.494-11.781,2.209c-3.025,0.55-5.954,1.613-8.958,2.309
			c-2.134,0.494-4.027,1.536-5.98,2.411c-4.43,1.985-8.37,4.775-12.054,7.923c-4.754,4.062-8.931,8.595-11.499,14.398
			c-0.472,1.067-1.091,2.104-1.084,3.335c-0.202,0.088-0.314,0.272-0.181,0.435c0.208,0.255,0.272-0.056,0.384-0.157
			c1.602-1.284,3.34-2.369,5.174-3.268c4.061-1.99,8.314-3.498,12.634-4.818c6.927-2.116,13.963-3.809,21.056-5.254
			c4.946-1.008,9.908-1.941,14.898-2.725c3.667-0.576,7.328-1.196,11.007-1.692c3.915-0.527,7.823-1.107,11.743-1.597
			c3.145-0.392,6.302-0.684,9.455-1.016c4.411-0.465,8.819-0.962,13.235-1.379c3.912-0.37,7.83-0.689,11.75-0.958
			c5.274-0.361,10.552-0.695,15.832-0.957c3.34-0.167,6.681-0.319,10.021-0.472c5.377-0.245,10.76-0.356,16.142-0.5
			c5.949-0.158,11.903,0.119,17.853-0.224c0.995-0.057,2.021-0.242,3.23,0.052c-0.568,0.42-1.065,0.658-1.382,1.044
			c-1.86,2.269-3.857,4.413-5.803,6.606c-3.859,4.352-7.656,8.759-11.494,13.129c-2.694,3.067-5.412,6.112-8.119,9.168
			c-0.104,0.115-0.416,0.183-0.161,0.396c0.171,0.141,0.352,0.022,0.435-0.188c0.229-0.038,0.474-0.041,0.688-0.121
			c3.456-1.279,6.908-2.564,10.359-3.855c8.591-3.214,17.177-6.442,25.772-9.644c7.055-2.626,14.124-5.211,21.181-7.832
			c8.525-3.166,17.047-6.345,25.565-9.529c6.932-2.591,13.858-5.2,20.852-7.825c-0.219-0.127-0.375-0.248-0.551-0.314
			c-6.49-2.448-12.988-4.877-19.475-7.337c-8.979-3.405-17.948-6.839-26.926-10.247c-10.189-3.867-20.386-7.717-30.578-11.578
			c-8.612-3.262-17.222-6.531-25.839-9.783c-0.384-0.146-0.835-0.653-1.23,0.02C154.671,8.5,154.359,8.207,154.319,7.68z"/>
		<path fill-rule="evenodd" clip-rule="evenodd" fill="#FFFFFF" d="M7.691,14.53c-0.078-0.402-0.323-0.604-0.731-0.61
			c0-1.88,0.024-3.761-0.016-5.64C6.933,7.763,7.043,7.573,7.561,7.675C7.715,7.706,7.88,7.68,8.04,7.68c48.76,0,97.52,0,146.28,0
			c0.04,0.526,0.352,0.819,0.831,0.968c2.145,2.327,4.287,4.654,6.434,6.979c2.908,3.151,5.811,6.309,8.732,9.448
			c2.574,2.765,5.229,5.458,7.731,8.286c1.067,1.208,2.256,2.298,3.35,3.486c-1.307,0.445-2.573,0.289-3.828,0.309
			c-6.669,0.109-13.334-0.188-20.002-0.252c-1.75-0.018-3.504-0.103-5.251-0.147c-6.69-0.17-13.375-0.438-20.059-0.771
			c-4.168-0.207-8.333-0.456-12.499-0.7c-5.63-0.332-11.251-0.747-16.87-1.228c-3.475-0.297-6.948-0.604-10.42-0.939
			c-5.242-0.507-10.481-1.031-15.703-1.712c-5.058-0.659-10.132-1.207-15.172-1.982c-6.35-0.976-12.688-2.034-18.993-3.292
			c-8.755-1.747-17.449-3.723-25.845-6.799C13.534,18.152,10.308,16.894,7.691,14.53z"/>
		<path fill-rule="evenodd" clip-rule="evenodd" fill="#19603B" d="M7.691,14.53c2.617,2.364,5.843,3.622,9.065,4.803
			c8.396,3.076,17.089,5.052,25.845,6.799c6.305,1.258,12.643,2.316,18.993,3.292c5.04,0.775,10.114,1.323,15.172,1.982
			c5.222,0.681,10.461,1.206,15.703,1.712c3.472,0.335,6.945,0.643,10.42,0.939c5.618,0.48,11.24,0.896,16.87,1.228
			c4.166,0.245,8.331,0.493,12.499,0.7c6.684,0.333,13.369,0.6,20.059,0.771c1.747,0.044,3.501,0.13,5.251,0.147
			c6.668,0.065,13.333,0.362,20.002,0.252c1.255-0.021,2.521,0.136,3.828-0.309c-1.094-1.188-2.282-2.278-3.35-3.486
			c-2.502-2.829-5.157-5.521-7.731-8.286c-2.922-3.139-5.824-6.296-8.732-9.448c-2.146-2.325-4.289-4.652-6.434-6.979
			c0.396-0.673,0.847-0.165,1.23-0.02c8.617,3.251,17.227,6.521,25.839,9.783c10.192,3.86,20.389,7.71,30.578,11.578
			c8.978,3.408,17.946,6.842,26.926,10.247c6.486,2.459,12.984,4.889,19.475,7.337c0.176,0.066,0.332,0.188,0.551,0.314
			c-6.993,2.625-13.92,5.234-20.852,7.825c-8.519,3.185-17.04,6.363-25.565,9.529c-7.057,2.621-14.126,5.206-21.181,7.832
			c-8.596,3.201-17.182,6.43-25.772,9.644c-3.451,1.291-6.903,2.576-10.359,3.855c-0.214,0.08-0.458,0.083-0.688,0.121
			c-0.092-0.069-0.183-0.139-0.273-0.208c2.707-3.056,5.425-6.101,8.119-9.168c3.838-4.37,7.635-8.777,11.494-13.129
			c1.945-2.193,3.942-4.338,5.803-6.606c0.316-0.386,0.813-0.624,1.382-1.044c-1.21-0.294-2.235-0.108-3.23-0.052
			c-5.949,0.343-11.903,0.065-17.853,0.224c-5.382,0.144-10.765,0.255-16.142,0.5c-3.34,0.152-6.681,0.305-10.021,0.472
			c-5.28,0.262-10.558,0.596-15.832,0.957c-3.92,0.269-7.838,0.588-11.75,0.958c-4.416,0.417-8.824,0.914-13.235,1.379
			c-3.152,0.332-6.31,0.624-9.455,1.016c-3.92,0.489-7.828,1.069-11.743,1.597c-3.68,0.496-7.34,1.116-11.007,1.692
			c-4.991,0.783-9.953,1.717-14.898,2.725c-7.092,1.445-14.129,3.138-21.056,5.254c-4.319,1.32-8.573,2.828-12.634,4.818
			c-1.834,0.898-3.572,1.983-5.174,3.268c-0.067-0.092-0.135-0.185-0.203-0.277c-0.007-1.23,0.612-2.268,1.084-3.335
			c2.568-5.804,6.745-10.337,11.499-14.398c3.684-3.147,7.624-5.938,12.054-7.923c1.953-0.875,3.846-1.917,5.98-2.411
			c3.004-0.695,5.933-1.759,8.958-2.309c3.931-0.715,7.872-1.379,11.781-2.209c0.077-0.017,0.184,0.026,0.235-0.013
			c0.401-0.31,1.204-0.318,1.206-0.843c0.003-0.591-0.708-0.517-1.195-0.61c-2.817-0.538-5.636-1.069-8.44-1.67
			c-2.802-0.601-5.597-1.241-8.377-1.936c-2.77-0.693-5.528-1.469-8.142-2.625c-5.14-2.272-10.315-4.517-14.631-8.244
			c-4.977-4.298-9.24-9.156-11.587-15.428C7.75,16.314,7.094,15.487,7.691,14.53z"/>
		<path fill-rule="evenodd" clip-rule="evenodd" fill="#19603B" d="M7.828,81.345c-0.112,0.102-0.176,0.412-0.384,0.157
			c-0.133-0.162-0.021-0.347,0.181-0.435C7.692,81.161,7.76,81.253,7.828,81.345z"/>
		<path fill-rule="evenodd" clip-rule="evenodd" fill="#19603B" d="M155.332,86.694c-0.083,0.21-0.264,0.328-0.435,0.188
			c-0.255-0.213,0.058-0.28,0.161-0.396C155.149,86.555,155.24,86.625,155.332,86.694z"/>
	</g>
</g>
</svg>
